<?xml version="1.0" encoding="UTF-8" standalone="no"?>
<!DOCTYPE svg PUBLIC "-//W3C//DTD SVG 1.1//EN"
 "http://www.w3.org/Graphics/SVG/1.1/DTD/svg11.dtd">
<!-- Generated by graphviz version 2.38.0 (20140413.2041)
 -->
<!-- Title: G Pages: 1 -->
<svg width="553pt" height="633pt"
 viewBox="0.00 0.00 552.69 632.83" xmlns="http://www.w3.org/2000/svg" xmlns:xlink="http://www.w3.org/1999/xlink">
<g id="graph0" class="graph" transform="scale(1 1) rotate(0) translate(4 628.833)">
<title>G</title>
<polygon fill="white" stroke="none" points="-4,4 -4,-628.833 548.688,-628.833 548.688,4 -4,4"/>
<!-- 0 -->
<g id="node1" class="node"><title>0</title>
<ellipse fill="none" stroke="black" cx="184.844" cy="-576.749" rx="135.529" ry="48.1667"/>
<text text-anchor="middle" x="184.844" y="-595.549" font-family="Times New Roman,serif" font-size="14.00">$v_1$: move around left corner</text>
<text text-anchor="middle" x="184.844" y="-580.549" font-family="Times New Roman,serif" font-size="14.00">&#45;&#45;&#45;&#45;&#45;&#45;&#45;&#45;&#45;&#45;&#45;&#45;&#45;</text>
<text text-anchor="middle" x="184.844" y="-565.549" font-family="Times New Roman,serif" font-size="14.00">Duration: 1,564336</text>
<text text-anchor="middle" x="184.844" y="-550.549" font-family="Times New Roman,serif" font-size="14.00">Robot: $r_1$: kr310r2100</text>
</g>
<!-- 1 -->
<g id="node2" class="node"><title>1</title>
<ellipse fill="none" stroke="black" cx="255.844" cy="-444.583" rx="113.689" ry="48.1667"/>
<text text-anchor="middle" x="255.844" y="-463.383" font-family="Times New Roman,serif" font-size="14.00">$v_2$: weld point 1</text>
<text text-anchor="middle" x="255.844" y="-448.383" font-family="Times New Roman,serif" font-size="14.00">&#45;&#45;&#45;&#45;&#45;&#45;&#45;&#45;&#45;&#45;&#45;&#45;&#45;</text>
<text text-anchor="middle" x="255.844" y="-433.383" font-family="Times New Roman,serif" font-size="14.00">Duration: 2,33929</text>
<text text-anchor="middle" x="255.844" y="-418.383" font-family="Times New Roman,serif" font-size="14.00">Robot: $r_1$: kr310r2100</text>
</g>
<!-- 0&#45;&gt;1 -->
<g id="edge1" class="edge"><title>0&#45;&gt;1</title>
<path fill="none" stroke="#ff0000" d="M210.076,-529.491C215.151,-520.188 220.531,-510.323 225.752,-500.752"/>
<polygon fill="#ff0000" stroke="#ff0000" points="228.978,-502.147 230.694,-491.692 222.832,-498.795 228.978,-502.147"/>
</g>
<!-- 2 -->
<g id="node3" class="node"><title>2</title>
<ellipse fill="none" stroke="black" cx="113.844" cy="-312.416" rx="113.689" ry="48.1667"/>
<text text-anchor="middle" x="113.844" y="-331.216" font-family="Times New Roman,serif" font-size="14.00">$v_3$: weld point 2</text>
<text text-anchor="middle" x="113.844" y="-316.216" font-family="Times New Roman,serif" font-size="14.00">&#45;&#45;&#45;&#45;&#45;&#45;&#45;&#45;&#45;&#45;&#45;&#45;&#45;</text>
<text text-anchor="middle" x="113.844" y="-301.216" font-family="Times New Roman,serif" font-size="14.00">Duration: 1,564336</text>
<text text-anchor="middle" x="113.844" y="-286.216" font-family="Times New Roman,serif" font-size="14.00">Robot: $r_1$: kr310r2100</text>
</g>
<!-- 1&#45;&gt;2 -->
<g id="edge2" class="edge"><title>1&#45;&gt;2</title>
<path fill="none" stroke="#ff0000" d="M208.955,-400.601C195.868,-388.604 181.54,-375.471 168.068,-363.121"/>
<polygon fill="#ff0000" stroke="#ff0000" points="170.421,-360.531 160.685,-356.353 165.691,-365.691 170.421,-360.531"/>
</g>
<!-- 4 -->
<g id="node5" class="node"><title>4</title>
<ellipse fill="none" stroke="black" cx="359.844" cy="-312.416" rx="113.689" ry="48.1667"/>
<text text-anchor="middle" x="359.844" y="-331.216" font-family="Times New Roman,serif" font-size="14.00">$v_5$: weld point 3</text>
<text text-anchor="middle" x="359.844" y="-316.216" font-family="Times New Roman,serif" font-size="14.00">&#45;&#45;&#45;&#45;&#45;&#45;&#45;&#45;&#45;&#45;&#45;&#45;&#45;</text>
<text text-anchor="middle" x="359.844" y="-301.216" font-family="Times New Roman,serif" font-size="14.00">Duration: 1,493985</text>
<text text-anchor="middle" x="359.844" y="-286.216" font-family="Times New Roman,serif" font-size="14.00">Robot: $r_2$: kr210r3100</text>
</g>
<!-- 1&#45;&gt;4 -->
<g id="edge7" class="edge"><title>1&#45;&gt;4</title>
<path fill="none" stroke="#0000ff" d="M291.635,-398.787C299.969,-388.356 308.921,-377.152 317.508,-366.404"/>
<polygon fill="#0000ff" stroke="#0000ff" points="320.48,-368.292 323.987,-358.295 315.011,-363.923 320.48,-368.292"/>
</g>
<!-- 2&#45;&gt;0 -->
<g id="edge3" class="edge"><title>2&#45;&gt;0</title>
<path fill="none" stroke="#008000" d="M113.103,-360.719C113.879,-397.607 117.986,-449.626 132.844,-492.666 136.134,-502.196 140.687,-511.766 145.741,-520.845"/>
<polygon fill="#008000" stroke="#008000" points="142.871,-522.871 150.935,-529.742 148.916,-519.342 142.871,-522.871"/>
</g>
<!-- 3 -->
<g id="node4" class="node"><title>3</title>
<ellipse fill="none" stroke="black" cx="359.844" cy="-48.0833" rx="141.343" ry="48.1667"/>
<text text-anchor="middle" x="359.844" y="-66.8833" font-family="Times New Roman,serif" font-size="14.00">$v_4$: move around right corner</text>
<text text-anchor="middle" x="359.844" y="-51.8833" font-family="Times New Roman,serif" font-size="14.00">&#45;&#45;&#45;&#45;&#45;&#45;&#45;&#45;&#45;&#45;&#45;&#45;&#45;</text>
<text text-anchor="middle" x="359.844" y="-36.8833" font-family="Times New Roman,serif" font-size="14.00">Duration: 1,724067</text>
<text text-anchor="middle" x="359.844" y="-21.8833" font-family="Times New Roman,serif" font-size="14.00">Robot: $r_2$: kr210r3100</text>
</g>
<!-- 3&#45;&gt;4 -->
<g id="edge4" class="edge"><title>3&#45;&gt;4</title>
<path fill="none" stroke="#ff0000" d="M324.965,-94.7835C317.926,-106.387 311.554,-119.246 307.844,-132.167 296.048,-173.247 296.048,-187.252 307.844,-228.333 310.691,-238.249 315.106,-248.127 320.187,-257.43"/>
<polygon fill="#ff0000" stroke="#ff0000" points="317.196,-259.251 325.232,-266.156 323.256,-255.747 317.196,-259.251"/>
</g>
<!-- 5 -->
<g id="node6" class="node"><title>5</title>
<ellipse fill="none" stroke="black" cx="430.844" cy="-180.25" rx="113.689" ry="48.1667"/>
<text text-anchor="middle" x="430.844" y="-199.05" font-family="Times New Roman,serif" font-size="14.00">$v_6$: weld point 4</text>
<text text-anchor="middle" x="430.844" y="-184.05" font-family="Times New Roman,serif" font-size="14.00">&#45;&#45;&#45;&#45;&#45;&#45;&#45;&#45;&#45;&#45;&#45;&#45;&#45;</text>
<text text-anchor="middle" x="430.844" y="-169.05" font-family="Times New Roman,serif" font-size="14.00">Duration: 1,493985</text>
<text text-anchor="middle" x="430.844" y="-154.05" font-family="Times New Roman,serif" font-size="14.00">Robot: $r_2$: kr210r3100</text>
</g>
<!-- 4&#45;&gt;5 -->
<g id="edge5" class="edge"><title>4&#45;&gt;5</title>
<path fill="none" stroke="#ff0000" d="M385.076,-265.158C390.151,-255.855 395.531,-245.99 400.752,-236.418"/>
<polygon fill="#ff0000" stroke="#ff0000" points="403.978,-237.814 405.694,-227.359 397.832,-234.462 403.978,-237.814"/>
</g>
<!-- 5&#45;&gt;3 -->
<g id="edge6" class="edge"><title>5&#45;&gt;3</title>
<path fill="none" stroke="#008000" d="M405.612,-132.991C400.598,-123.799 395.285,-114.058 390.123,-104.594"/>
<polygon fill="#008000" stroke="#008000" points="393.095,-102.734 385.234,-95.6312 386.95,-106.086 393.095,-102.734"/>
</g>
</g>
</svg>
